<svg xmlns="http://www.w3.org/2000/svg" width="176" height="65" viewBox="0 0 176 65">
  <g fill="none" fill-rule="evenodd">
    <path fill="#221E1F" d="M51.315 42.86L44.687 42.86 44.687 44 44.905 44.03C47.733 44.41 47.733 44.41 47.733 46.766L47.733 56.895C47.733 61.891 50.14 64.221 55.305 64.221 62.241 64.221 62.816 60.209 62.816 55.735L62.816 42.86 60.111 42.86 60.111 56.069C60.111 59.125 60.111 62.28 55.7 62.28 51.597 62.28 51.597 58.926 51.597 55.369L51.597 42.86 51.315 42.86zM90.509 42.86L88.11 42.86C88.11 42.86 83.915 49.922 83.525 50.578 83.125 49.924 78.792 42.86 78.792 42.86L72.634 42.86 72.634 44.004 72.851 44.035C75.208 44.389 75.487 44.727 76.575 46.48 76.575 46.48 80.085 52.237 80.637 53.145 80.482 53.405 74.113 63.885 74.113 63.885L76.843 63.885C76.843 63.885 81.57 55.936 81.972 55.26 82.373 55.938 87.071 63.885 87.071 63.885L91.507 63.885C91.507 63.885 84.929 52.92 84.771 52.659 84.935 52.401 90.969 42.86 90.969 42.86L90.509 42.86zM116.669 42.86L114.573 42.86C114.573 42.86 109.792 50.92 109.387 51.606 108.986 50.912 104.35 42.86 104.35 42.86L98.276 42.86 98.276 44 98.787 44.084C100.084 44.282 100.729 44.383 101.667 45.957 101.667 45.957 106.168 53.512 106.537 54.131L106.537 63.885 110.402 63.885 110.402 54.131C110.471 54.012 117.119 42.86 117.119 42.86L116.669 42.86zM132.771 51.338C130.513 50.176 128.562 49.168 128.562 47.17 128.562 45.477 129.563 44.467 131.237 44.467 133.537 44.467 135.738 45.297 136.584 45.703L136.949 45.877 136.949 43.119 136.664 43.063C135.831 42.904 133.876 42.525 131.816 42.525 127.361 42.525 124.7 44.592 124.7 48.051 124.7 51.637 127.667 53.184 130.281 54.553 132.506 55.717 134.609 56.817 134.609 58.967 134.609 61.703 132.676 62.28 131.05 62.28 129.235 62.28 127.424 61.561 126.175 60.928L126.033 59.006 124.974 59.006 124.974 60.264 124.974 61.434 124.974 63.373 125.387 63.473C126.21 63.678 128.402 64.221 130.564 64.221 135.588 64.221 138.472 61.94 138.472 57.961 138.472 54.276 135.443 52.717 132.771 51.338"/>
    <path fill="#FFFFFF" d="M163.028,26.509 C161.105,26.509 158.822,27.63 158.822,27.63 C158.272,27.896 157.471,27.761 157.042,27.331 L154.884,25.168 C154.454,24.738 154.284,23.922 154.507,23.351 C154.507,23.351 154.957,22.223 154.957,20.998 C154.957,19.698 154.427,18.452 154.427,18.452 C154.191,17.888 154.347,17.072 154.771,16.639 L157.313,14.046 C157.74,13.61 158.5,13.356 159.007,13.484 L159.503,13.484 C161.983,13.484 164.002,11.468 164.002,8.988 C164.002,6.509 161.983,4.492 159.503,4.492 C157.024,4.492 155.003,6.509 155.003,8.988 C155.003,8.988 154.961,9.394 155.035,9.711 C155.166,10.303 155.022,11.121 154.597,11.557 L152.178,14.025 C151.753,14.461 150.944,14.616 150.386,14.378 C150.386,14.378 149.101,13.822 147.78,13.822 C143.826,13.822 140.604,17.042 140.604,20.998 C140.604,24.953 143.826,28.171 147.78,28.171 C149.167,28.171 150.546,27.543 150.546,27.543 C151.102,27.292 151.909,27.438 152.339,27.869 L154.459,29.993 C154.887,30.423 155.031,31.226 154.771,31.782 C154.771,31.782 153.773,33.927 153.773,35.765 C153.773,40.869 157.925,45.019 163.028,45.019 C168.133,45.019 172.286,40.869 172.286,35.765 C172.286,30.659 168.133,26.509 163.028,26.509"/>
    <path fill="#B9BBBE" d="M163.028,45.019 C157.925,45.019 153.773,40.869 153.773,35.765 C153.773,33.927 154.771,31.782 154.771,31.782 C155.031,31.226 154.887,30.423 154.459,29.993 L152.339,27.869 C151.909,27.438 151.102,27.292 150.546,27.543 C150.546,27.543 149.167,28.171 147.78,28.171 C143.826,28.171 140.604,24.953 140.604,20.998 C140.604,17.042 143.826,13.822 147.78,13.822 C149.101,13.822 150.386,14.378 150.386,14.378 C150.944,14.616 151.753,14.461 152.178,14.025 L154.597,11.557 C155.022,11.121 155.166,10.303 155.035,9.711 C154.961,9.394 155.003,8.988 155.003,8.988 C155.003,6.509 157.024,4.492 159.503,4.492 C161.983,4.492 164.002,6.509 164.002,8.988 C164.002,11.468 161.983,13.484 159.503,13.484 L159.007,13.484 C158.5,13.356 157.74,13.61 157.313,14.046 L154.771,16.639 C154.347,17.072 154.191,17.888 154.427,18.452 C154.427,18.452 154.957,19.698 154.957,20.998 C154.957,22.223 154.507,23.351 154.507,23.351 C154.284,23.922 154.454,24.738 154.884,25.168 L157.042,27.331 C157.471,27.761 158.272,27.896 158.822,27.63 C158.822,27.63 161.105,26.509 163.028,26.509 C168.133,26.509 172.286,30.659 172.286,35.765 C172.286,40.869 168.133,45.019 163.028,45.019 M163.028,22.796 C161.373,22.796 159.395,23.369 159.395,23.369 C158.81,23.543 158.421,23.19 158.538,22.593 C158.538,22.593 158.667,21.924 158.667,20.998 C158.667,19.603 158.23,18.106 158.23,18.106 C158.06,17.52 158.388,17.114 158.959,17.198 L159.503,17.198 C164.026,17.198 167.711,13.515 167.711,8.988 C167.711,4.459 164.026,0.779 159.503,0.779 C154.974,0.779 151.293,4.459 151.293,8.988 C151.293,9.598 151.306,9.669 151.306,9.669 C151.407,10.27 151.006,10.631 150.421,10.473 C150.421,10.473 149.083,10.112 147.78,10.112 C141.776,10.112 136.895,14.993 136.895,20.998 C136.895,27.002 141.776,31.884 147.78,31.884 C148.832,31.884 149.716,31.692 149.716,31.692 C150.314,31.561 150.675,31.937 150.517,32.523 C150.517,32.523 150.063,34.256 150.063,35.765 C150.063,42.916 155.879,48.733 163.028,48.733 C170.18,48.733 176,42.916 176,35.765 C176,28.616 170.18,22.796 163.028,22.796"/>
    <path fill="#00AEEF" d="M161.803,8.988 C161.803,10.258 160.772,11.289 159.503,11.289 C158.23,11.289 157.202,10.258 157.202,8.988 C157.202,7.719 158.23,6.688 159.503,6.688 C160.772,6.688 161.803,7.719 161.803,8.988"/>
    <path fill="#DE791B" d="M170.126,35.765 C170.126,39.686 166.948,42.86 163.028,42.86 C159.112,42.86 155.937,39.686 155.937,35.765 C155.937,31.848 159.112,28.669 163.028,28.669 C166.948,28.669 170.126,31.848 170.126,35.765"/>
    <path fill="#221E1F" d="M38.802 61.946L31.969 61.946C31.055 61.946 30.552 61.946 30.371 61.746 30.181 61.53 30.181 60.92 30.181 59.912L30.181 42.86 29.9 42.86 23.271 42.86 23.271 44 23.492 44.03C26.319 44.41 26.319 44.41 26.319 46.766L26.319 63.885 38.691 63.885 38.802 61.946zM12.299 51.948L7.033 51.948 7.033 46.133C7.033 44.885 7.242 44.801 8.699 44.801L15.378 44.801 15.38 42.86.275 42.86.275 44 .529 44.042C3.171 44.473 3.171 44.473 3.171 47.262L3.171 63.885 7.033 63.885 7.033 53.885 12.299 53.885 12.299 51.948z"/>
  </g>
</svg>
