<svg xmlns="http://www.w3.org/2000/svg" width="65" height="65" viewBox="0 0 65 65">
  <g fill="none" fill-rule="evenodd" transform="translate(7.5 2)">
    <path fill="#FFFFFF" d="M32.8562341,28.1937882 C30.7802341,28.1937882 28.3012341,28.9137882 28.3012341,28.9137882 C27.5692341,29.1267882 27.0862341,28.6887882 27.2292341,27.9377882 C27.2292341,27.9377882 27.3882341,27.0987882 27.3882341,25.9397882 C27.3882341,24.1907882 26.8412341,22.3147882 26.8412341,22.3147882 C26.6282341,21.5807882 27.0402341,21.0697882 27.7572341,21.1767882 L28.4362341,21.1767882 C34.1082341,21.1767882 38.7242341,16.5627882 38.7242341,10.8907882 C38.7242341,5.21778817 34.1082341,0.602788173 28.4362341,0.602788173 C22.7632341,0.602788173 18.1482341,5.21778817 18.1482341,10.8907882 C18.1482341,11.6537882 18.1632341,11.7447882 18.1632341,11.7447882 C18.2912341,12.4967882 17.7932341,12.9507882 17.0572341,12.7507882 C17.0572341,12.7507882 15.3792341,12.2967882 13.7492341,12.2967882 C6.22523407,12.2967882 0.107234074,18.4147882 0.107234074,25.9397882 C0.107234074,33.4597882 6.22523407,39.5797882 13.7492341,39.5797882 C15.0622341,39.5797882 16.1762341,39.3377882 16.1762341,39.3377882 C16.9222341,39.1727882 17.3742341,39.6447882 17.1782341,40.3817882 C17.1782341,40.3817882 16.6072341,42.5497882 16.6072341,44.4427882 C16.6072341,53.4017882 23.8962341,60.6927882 32.8562341,60.6927882 C41.8162341,60.6927882 49.1072341,53.4017882 49.1072341,44.4427882 C49.1072341,35.4827882 41.8162341,28.1937882 32.8562341,28.1937882 M32.8562341,56.0397882 C26.4622341,56.0397882 21.2582341,50.8387882 21.2582341,44.4427882 C21.2582341,42.1417882 22.5112341,39.4507882 22.5112341,39.4507882 C22.8332341,38.7577882 22.6532341,37.7477882 22.1142341,37.2087882 L19.4582341,34.5487882 C18.9212341,34.0077882 17.9092341,33.8247882 17.2172341,34.1417882 C17.2172341,34.1417882 15.4852341,34.9267882 13.7492341,34.9267882 C8.79223407,34.9267882 4.75823407,30.8947882 4.75823407,25.9397882 C4.75823407,20.9807882 8.79223407,16.9487882 13.7492341,16.9487882 C15.4052341,16.9487882 17.0092341,17.6407882 17.0092341,17.6407882 C17.7112341,17.9447882 18.7232341,17.7447882 19.2562341,17.1997882 L22.2882341,14.1087882 C22.8242341,13.5637882 23.0022341,12.5377882 22.8372341,11.7947882 C22.7502341,11.3967882 22.8012341,10.8907882 22.8012341,10.8907882 C22.8012341,7.78278817 25.3282341,5.25478817 28.4362341,5.25478817 C31.5432341,5.25478817 34.0712341,7.78278817 34.0712341,10.8907882 C34.0712341,13.9977882 31.5432341,16.5257882 28.4362341,16.5257882 L27.8162341,16.5257882 C27.1822341,16.3667882 26.2282341,16.6817882 25.6932341,17.2277882 L22.5052341,20.4747882 C21.9722341,21.0217882 21.7792341,22.0437882 22.0752341,22.7457882 C22.0752341,22.7457882 22.7372341,24.3107882 22.7372341,25.9397882 C22.7372341,27.4727882 22.1772341,28.8917882 22.1772341,28.8917882 C21.8982341,29.6017882 22.1112341,30.6257882 22.6502341,31.1647882 L25.3542341,33.8767882 C25.8932341,34.4157882 26.8952341,34.5827882 27.5812341,34.2467882 C27.5812341,34.2467882 30.4412341,32.8447882 32.8562341,32.8447882 C39.2522341,32.8447882 44.4552341,38.0467882 44.4552341,44.4427882 C44.4552341,50.8387882 39.2522341,56.0397882 32.8562341,56.0397882"/>
    <path fill="#009EE0" d="M31.3193341,10.8898882 C31.3193341,12.4808882 30.0283341,13.7718882 28.4353341,13.7718882 C26.8443341,13.7718882 25.5533341,12.4808882 25.5533341,10.8898882 C25.5533341,9.29888817 26.8443341,8.00788817 28.4353341,8.00788817 C30.0283341,8.00788817 31.3193341,9.29888817 31.3193341,10.8898882"/>
    <path fill="#CE6F05" d="M41.7477341,44.4427882 C41.7477341,49.3537882 37.7667341,53.3337882 32.8567341,53.3337882 C27.9457341,53.3337882 23.9657341,49.3537882 23.9657341,44.4427882 C23.9657341,39.5317882 27.9457341,35.5517882 32.8567341,35.5517882 C37.7667341,35.5517882 41.7477341,39.5317882 41.7477341,44.4427882"/>
  </g>
</svg>
